<svg xmlns="http://www.w3.org/2000/svg" version="1.1" xmlns:xlink="http://www.w3.org/1999/xlink" xmlns:svgjs="http://svgjs.dev/svgjs" width="1000" height="1000" viewBox="0 0 1000 1000"><g transform="matrix(1,0,0,1,-0.49999999999994316,-0.5002150229357767)"><svg viewBox="0 0 280 280" data-background-color="#ffffff" preserveAspectRatio="xMidYMid meet" height="1000" width="1000" xmlns="http://www.w3.org/2000/svg" xmlns:xlink="http://www.w3.org/1999/xlink"><g id="tight-bounds" transform="matrix(1,0,0,1,0.13999999999998636,0.14006020642202088)"><svg viewBox="0 0 279.72 279.72" height="279.72" width="279.72"><g><svg viewBox="0 0 279.72 279.72" height="279.72" width="279.72"><g><svg viewBox="0 0 279.72 279.72" height="279.72" width="279.72"><g id="textblocktransform"><svg viewBox="0 0 279.72 279.72" height="279.72" width="279.72" id="textblock"><g><svg viewBox="0 0 279.72 279.72" height="279.72" width="279.72"><g transform="matrix(1,0,0,1,57.446704652707865,57.446704652707865)"><svg viewBox="0 0 164.8265906945843 164.8265906945843" height="164.8265906945843" width="164.8265906945843"><g><circle r="82" cx="82.41329534729215" cy="82.41329534729215" fill="#528265" data-fill-palette-color="accent"></circle><svg version="1.1" xmlns="http://www.w3.org/2000/svg" xmlns:xlink="http://www.w3.org/1999/xlink" x="24.72398860418764" y="24.723988604187646" viewBox="0 0 97.7969970703125 100" enable-background="new 0 0 97.797 100" xml:space="preserve" width="115.378613486209" height="115.378613486209" class="icon-o-0" data-fill-palette-color="quaternary" id="o-0"><g fill="#ffffff" data-fill-palette-color="quaternary"><path fill="#ffffff" d="M92.949 28.574c-0.589-1.233-1.232-2.436-1.917-3.612-31.763 6.55-70.245 23.78-87.199 49.308 4.169 7.551 10.231 13.907 17.545 18.437C36.124 64.16 74.268 35.392 92.949 28.574z" data-fill-palette-color="quaternary"></path><path fill="#ffffff" d="M88.161 20.564C79.049 8.101 64.326 0 47.705 0 26.224 0 7.908 13.525 0.79 32.522 26.45 19.774 66.517 17.275 88.161 20.564z" data-fill-palette-color="quaternary"></path><path fill="#ffffff" d="M51.853 100c25.723-2.111 45.944-23.641 45.944-49.908 0-6.846-1.377-13.369-3.861-19.312C76.481 48.621 58.938 74.629 51.853 100z" data-fill-palette-color="quaternary"></path><rect x="10.784" y="47.083" fill="#ffffff" width="1.575" height="14.367" data-fill-palette-color="quaternary"></rect><path fill="#ffffff" d="M8.768 35.951c2.803 2.63 3.716 8.27 3.552 11.111 5.571-4.525-0.565-13.208-5.431-14.315 0.33 2.208 0.107 4.251-0.223 6.076-0.72 4.025 1.159 7.949 4.2 8.27C10.946 45.055 11.571 42.173 8.768 35.951z" data-fill-palette-color="quaternary"></path><path fill="#ffffff" d="M2.507 48.42c1.666-0.761 5.88-0.401 7.699 0.08C7.021 43.682 1.279 46.665 0 48.998c1.53 0.238 2.834 0.812 3.973 1.406 2.511 1.313 5.496 0.885 6.342-1.062C8.983 48.871 4.428 48.385 2.507 48.42z" data-fill-palette-color="quaternary"></path><path fill="#ffffff" d="M18.505 46.233c-0.396 1.782-3.227 4.932-4.702 6.089 5.761 0.368 6.845-6.013 5.754-8.439-1.114 1.077-2.359 1.771-3.519 2.32-2.565 1.211-4.021 3.854-2.98 5.699C14.244 51.126 17.379 47.783 18.505 46.233z" data-fill-palette-color="quaternary"></path><rect x="45.054" y="83.666" fill="#ffffff" width="1.575" height="14.367" data-fill-palette-color="quaternary"></rect><path fill="#ffffff" d="M43.039 72.534c2.803 2.63 3.716 8.27 3.552 11.109 5.572-4.523-0.565-13.208-5.431-14.313 0.33 2.208 0.106 4.253-0.223 6.075-0.72 4.024 1.159 7.951 4.2 8.271C45.216 81.638 45.841 78.755 43.039 72.534z" data-fill-palette-color="quaternary"></path><path fill="#ffffff" d="M36.778 85.003c1.666-0.763 5.88-0.401 7.698 0.079-3.186-4.818-8.927-1.836-10.207 0.497 1.53 0.238 2.835 0.812 3.973 1.406 2.511 1.313 5.496 0.885 6.342-1.059C43.255 85.452 38.7 84.968 36.778 85.003z" data-fill-palette-color="quaternary"></path><path fill="#ffffff" d="M52.779 82.815c-0.396 1.783-3.226 4.933-4.701 6.09 5.761 0.366 6.846-6.015 5.754-8.439-1.114 1.075-2.359 1.77-3.519 2.319-2.562 1.21-4.021 3.854-2.978 5.698C48.516 87.707 51.651 84.363 52.779 82.815z" data-fill-palette-color="quaternary"></path><rect x="31.124" y="35.936" fill="#ffffff" width="1.145" height="10.435" data-fill-palette-color="quaternary"></rect><path fill="#ffffff" d="M29.66 27.853c2.035 1.909 2.698 6.005 2.578 8.067 4.048-3.285-0.411-9.592-3.942-10.393 0.24 1.603 0.077 3.088-0.164 4.412-0.521 2.921 0.842 5.773 3.05 6.007C31.241 34.464 31.695 32.37 29.66 27.853z" data-fill-palette-color="quaternary"></path><path fill="#ffffff" d="M25.113 36.907c1.208-0.552 4.27-0.291 5.592 0.058-2.316-3.499-6.483-1.333-7.412 0.361 1.111 0.173 2.059 0.589 2.885 1.021 1.825 0.955 3.991 0.643 4.605-0.769C29.816 37.232 26.509 36.882 25.113 36.907z" data-fill-palette-color="quaternary"></path><path fill="#ffffff" d="M36.733 35.32c-0.289 1.293-2.343 3.581-3.414 4.421 4.183 0.266 4.971-4.368 4.18-6.13-0.811 0.78-1.713 1.286-2.556 1.685-1.863 0.878-2.92 2.8-2.164 4.138C33.638 38.873 35.916 36.444 36.733 35.32z" data-fill-palette-color="quaternary"></path><rect x="58.464" y="65.586" fill="#ffffff" width="1.146" height="10.438" data-fill-palette-color="quaternary"></rect><path fill="#ffffff" d="M57 57.504c2.035 1.909 2.697 6.006 2.58 8.067 4.047-3.285-0.411-9.593-3.943-10.395 0.241 1.604 0.078 3.09-0.165 4.414-0.52 2.922 0.843 5.773 3.051 6.008C58.582 64.114 59.036 62.021 57 57.504z" data-fill-palette-color="quaternary"></path><path fill="#ffffff" d="M52.453 66.561c1.209-0.555 4.27-0.294 5.593 0.057-2.315-3.5-6.482-1.333-7.411 0.36 1.108 0.174 2.059 0.591 2.886 1.021 1.827 0.953 3.991 0.644 4.606-0.771C57.159 66.885 53.849 66.534 52.453 66.561z" data-fill-palette-color="quaternary"></path><path fill="#ffffff" d="M64.073 64.97c-0.288 1.292-2.342 3.582-3.414 4.423 4.183 0.264 4.97-4.367 4.18-6.131-0.81 0.781-1.713 1.288-2.555 1.686-1.862 0.878-2.922 2.799-2.164 4.136C60.978 68.522 63.254 66.094 64.073 64.97z" data-fill-palette-color="quaternary"></path><rect x="50.152" y="28.824" fill="#ffffff" width="0.818" height="7.002" data-fill-palette-color="quaternary"></rect><path fill="#ffffff" d="M49.015 23.401c1.548 1.282 2.05 4.028 1.962 5.413 3.078-2.204-0.314-6.436-3.002-6.975 0.184 1.078 0.059 2.072-0.124 2.96-0.395 1.961 0.642 3.873 2.322 4.029C50.214 27.838 50.559 26.432 49.015 23.401z" data-fill-palette-color="quaternary"></path><path fill="#ffffff" d="M45.555 29.477c0.92-0.371 3.245-0.196 4.252 0.038-1.76-2.347-4.929-0.895-5.635 0.242 0.845 0.116 1.565 0.396 2.194 0.686 1.388 0.64 3.034 0.43 3.5-0.518C49.132 29.695 46.618 29.462 45.555 29.477z" data-fill-palette-color="quaternary"></path><path fill="#ffffff" d="M54.392 28.412c-0.219 0.869-1.779 2.403-2.598 2.967 3.18 0.177 3.78-2.932 3.178-4.114-0.617 0.524-1.304 0.865-1.944 1.13-1.416 0.59-2.219 1.878-1.644 2.778C52.036 30.797 53.77 29.167 54.392 28.412z" data-fill-palette-color="quaternary"></path><rect x="70.946" y="49.618" fill="#ffffff" width="0.816" height="7.002" data-fill-palette-color="quaternary"></rect><path fill="#ffffff" d="M69.807 44.197c1.548 1.281 2.053 4.028 1.962 5.411 3.079-2.202-0.313-6.436-2.999-6.975 0.183 1.078 0.059 2.073-0.123 2.962-0.396 1.96 0.64 3.872 2.32 4.029C71.009 48.632 71.355 47.228 69.807 44.197z" data-fill-palette-color="quaternary"></path><path fill="#ffffff" d="M66.349 50.271c0.919-0.37 3.246-0.195 4.253 0.038-1.76-2.347-4.93-0.894-5.637 0.242 0.845 0.116 1.566 0.396 2.195 0.686 1.385 0.641 3.032 0.431 3.5-0.517C69.925 50.489 67.412 50.256 66.349 50.271z" data-fill-palette-color="quaternary"></path><path fill="#ffffff" d="M75.187 49.207c-0.222 0.869-1.781 2.402-2.601 2.965 3.183 0.178 3.782-2.931 3.18-4.112-0.618 0.524-1.303 0.862-1.944 1.129-1.414 0.59-2.22 1.878-1.646 2.777C72.831 51.589 74.563 49.96 75.187 49.207z" data-fill-palette-color="quaternary"></path><rect x="65.704" y="25.275" fill="#ffffff" width="0.551" height="4.727" data-fill-palette-color="quaternary"></rect><path fill="#ffffff" d="M64.935 21.616c1.042 0.865 1.383 2.718 1.322 3.653 2.078-1.489-0.208-4.345-2.025-4.707 0.124 0.727 0.039 1.398-0.083 1.999-0.269 1.323 0.434 2.615 1.567 2.72C65.745 24.61 65.977 23.661 64.935 21.616z" data-fill-palette-color="quaternary"></path><path fill="#ffffff" d="M62.598 25.716c0.619-0.25 2.189-0.132 2.871 0.027-1.188-1.585-3.327-0.603-3.804 0.163 0.57 0.079 1.06 0.268 1.483 0.463 0.936 0.432 2.047 0.29 2.359-0.35C65.013 25.863 63.315 25.707 62.598 25.716z" data-fill-palette-color="quaternary"></path><path fill="#ffffff" d="M68.565 24.997c-0.149 0.587-1.206 1.622-1.753 2.003 2.146 0.12 2.548-1.978 2.143-2.777-0.416 0.354-0.878 0.583-1.312 0.764-0.955 0.397-1.496 1.266-1.108 1.874C66.971 26.606 68.145 25.508 68.565 24.997z" data-fill-palette-color="quaternary"></path></g></svg></g></svg></g><g><path d="M28.004 188.576V188.576L22.219 190.664C21.371 190.975 20.788 191.337 20.47 191.75 20.151 192.163 20.144 192.784 20.448 193.613V193.613L23.122 200.908C23.428 201.801 22.918 202.49 21.592 202.976V202.976C20.572 203.35 19.784 203.498 19.228 203.42 18.678 203.34 18.252 202.918 17.95 202.153V202.153C16.878 199.466 15.856 196.797 14.884 194.145 13.909 191.487 12.686 188.093 11.215 183.961V183.961C10.96 183.266 10.923 182.64 11.101 182.083 11.28 181.526 11.656 181.11 12.227 180.835V180.835C13.848 180.067 16.462 179.022 20.069 177.7 23.677 176.377 26.128 175.529 27.423 175.156 28.715 174.776 29.619 174.647 30.134 174.769 30.646 174.885 31.047 175.338 31.337 176.129V176.129L34.173 183.863C34.469 184.673 34.451 185.283 34.117 185.695 33.792 186.11 33.169 186.52 32.247 186.923 31.324 187.326 29.91 187.877 28.004 188.576ZM30.631 223.467V223.467C29.218 221.432 28.203 219.405 27.586 217.387 26.97 215.368 26.751 213.536 26.931 211.891 27.111 210.245 27.565 208.769 28.293 207.461 29.02 206.163 29.982 205.098 31.181 204.265 32.374 203.436 33.713 202.912 35.196 202.691 36.68 202.471 38.222 202.561 39.823 202.962 41.42 203.357 43.059 204.194 44.741 205.473 46.428 206.748 47.955 208.369 49.322 210.338 50.693 212.312 51.657 214.224 52.216 216.076 52.784 217.93 52.969 219.612 52.77 221.122V221.122C52.361 224.199 50.978 226.557 48.619 228.195V228.195C47.426 229.024 46.08 229.579 44.58 229.86 43.076 230.144 41.528 230.136 39.939 229.835 38.34 229.532 36.721 228.838 35.083 227.752 33.449 226.672 31.965 225.244 30.631 223.467ZM43.916 221.655C44.713 221.101 45.213 220.333 45.414 219.35 45.612 218.361 45.304 217.281 44.491 216.11 43.678 214.939 42.724 214.226 41.628 213.97 40.524 213.712 39.525 213.893 38.633 214.513 37.741 215.132 37.276 215.992 37.239 217.093 37.203 218.184 37.539 219.24 38.248 220.26 38.957 221.28 39.877 221.91 41.01 222.148 42.144 222.377 43.113 222.213 43.916 221.655ZM53.266 248.429V248.429C50.465 246.032 48.86 243.424 48.449 240.605 48.038 237.787 48.945 235.078 51.17 232.479V232.479C52.53 230.891 53.987 229.721 55.542 228.97 57.087 228.219 58.641 227.892 60.203 227.987V227.987C63.3 228.181 66.39 229.598 69.474 232.238V232.238C71.47 233.946 73.229 235.926 74.751 238.177V238.177C75.303 239.078 75.159 240.018 74.32 240.998V240.998C73.172 242.339 72.178 242.65 71.337 241.93V241.93C71.198 241.811 70.792 241.356 70.119 240.565 69.446 239.775 68.953 239.245 68.638 238.976V238.976C67.535 238.031 66.355 237.687 65.099 237.943 63.843 238.199 62.758 238.861 61.844 239.928 60.93 240.996 60.405 242.173 60.269 243.459 60.138 244.75 60.541 245.824 61.479 246.681V246.681C62.107 247.272 63.254 248.281 64.92 249.707V249.707C65.73 250.4 65.846 251.162 65.27 251.991V251.991C65.074 252.314 64.854 252.618 64.611 252.902 64.364 253.19 64.089 253.464 63.787 253.724V253.724C63.217 254.201 62.433 254.236 61.433 253.827 60.434 253.418 59.124 252.677 57.505 251.603 55.891 250.525 54.477 249.467 53.266 248.429ZM96.275 250.518V250.518L97.889 270.205C97.959 270.994 97.893 271.596 97.692 272.011 97.49 272.427 97.175 272.655 96.748 272.696 96.32 272.738 95.883 272.65 95.438 272.434V272.434L86.533 268.111C85.63 267.672 85.129 267.226 85.033 266.771V266.771C85.013 266.626 85.004 266.38 85.006 266.034V266.034L85.041 263.934C85.064 263.281 84.65 262.703 83.8 262.2V262.2L78.569 259.66C78.185 259.473 77.871 259.366 77.627 259.339 77.387 259.32 77.141 259.408 76.888 259.602V259.602L74.722 261.313C74.376 261.56 74.065 261.688 73.788 261.697 73.509 261.712 73.156 261.616 72.728 261.409V261.409L70.246 260.204C69.525 259.854 69.264 259.406 69.461 258.86V258.86C69.478 258.778 69.504 258.7 69.54 258.627V258.627C69.744 258.206 70.079 257.866 70.544 257.609V257.609L86.61 246.55C88.14 245.512 89.836 245.445 91.699 246.349V246.349L93.907 247.421C95.385 248.139 96.174 249.171 96.275 250.518ZM83.869 253.245V253.245L81.372 255.146C81.219 255.275 81.111 255.404 81.049 255.532V255.532C80.815 256.015 80.93 256.369 81.394 256.594V256.594L83.913 257.817C84.298 258.004 84.611 258.035 84.852 257.911 85.094 257.786 85.25 257.651 85.321 257.504 85.392 257.358 85.436 257.198 85.452 257.025V257.025L85.564 254.136C85.569 253.55 85.398 253.172 85.05 253.003 84.702 252.834 84.308 252.915 83.869 253.245ZM120.685 264.062V264.062L119.496 270.097C119.326 270.983 119.337 271.67 119.527 272.155 119.717 272.641 120.246 272.967 121.112 273.133V273.133L128.743 274.596C129.666 274.794 129.994 275.586 129.728 276.973V276.973C129.524 278.04 129.245 278.792 128.892 279.229 128.54 279.659 127.958 279.806 127.148 279.672V279.672C124.292 279.207 121.478 278.709 118.704 278.177 115.924 277.644 112.384 276.945 108.084 276.079V276.079C107.358 275.939 106.802 275.65 106.416 275.209 106.03 274.769 105.867 274.233 105.926 273.602V273.602C106.102 271.817 106.552 269.038 107.275 265.265 107.999 261.491 108.534 258.953 108.881 257.651 109.22 256.347 109.575 255.506 109.945 255.128 110.308 254.748 110.903 254.638 111.73 254.796V254.796L119.82 256.348C120.667 256.51 121.181 256.84 121.362 257.338 121.551 257.83 121.581 258.576 121.452 259.574 121.323 260.572 121.067 262.068 120.685 264.062ZM168.418 260.385V260.385C166.598 260.697 165.4 261.384 164.824 262.447 164.249 263.509 164.135 265.061 164.485 267.102V267.102C165.034 270.314 166.249 271.759 168.13 271.437V271.437C168.511 271.372 168.76 271.319 168.877 271.278V271.278C168.636 271.319 168.367 270.932 168.069 270.115 167.776 269.29 167.55 268.413 167.391 267.483 167.232 266.553 167.38 265.908 167.834 265.547 168.296 265.186 168.975 264.929 169.872 264.775 170.768 264.622 171.395 264.521 171.752 264.474 172.109 264.427 172.521 264.397 172.987 264.386 173.455 264.382 173.821 264.43 174.086 264.529V264.529C174.71 264.753 175.077 265.189 175.188 265.838V265.838L175.946 270.265C176.215 271.837 176.146 273.141 175.737 274.175 175.336 275.214 174.37 275.948 172.839 276.375V276.375C170.695 276.97 167.382 277.65 162.898 278.418V278.418C161.098 278.726 159.508 278.709 158.127 278.366 156.752 278.016 155.623 277.397 154.741 276.508V276.508C153.127 274.849 152.073 272.57 151.577 269.673 151.081 266.776 151.57 264.037 153.043 261.457 154.508 258.871 156.773 257.234 159.836 256.544V256.544C161.937 256.06 163.462 255.737 164.413 255.575V255.575C167.872 254.982 170.364 254.776 171.89 254.956V254.956C172.928 255.068 173.56 255.779 173.784 257.091V257.091C174.085 258.85 173.721 259.819 172.69 259.995V259.995C172.366 260.03 171.71 260.08 170.722 260.146 169.735 260.212 168.967 260.291 168.418 260.385ZM199.622 266.922V266.922C197.372 267.959 195.2 268.606 193.105 268.862 191.01 269.118 189.168 269.014 187.579 268.551 185.99 268.088 184.615 267.384 183.454 266.439 182.302 265.498 181.42 264.364 180.809 263.039 180.2 261.72 179.917 260.31 179.958 258.811 179.999 257.312 180.356 255.809 181.03 254.302 181.697 252.799 182.806 251.33 184.358 249.897 185.907 248.457 187.769 247.235 189.946 246.232 192.128 245.225 194.179 244.608 196.1 244.38 198.024 244.143 199.713 244.254 201.165 244.713V244.713C204.125 245.651 206.206 247.423 207.408 250.031V250.031C208.017 251.35 208.329 252.772 208.345 254.298 208.363 255.829 208.086 257.351 207.513 258.864 206.936 260.386 205.971 261.859 204.617 263.284 203.269 264.705 201.604 265.918 199.622 266.922ZM200.149 253.525C199.743 252.643 199.073 252.017 198.14 251.648 197.201 251.281 196.084 251.396 194.789 251.993 193.495 252.59 192.626 253.406 192.184 254.44 191.738 255.483 191.742 256.497 192.197 257.484 192.652 258.47 193.418 259.078 194.495 259.306 195.563 259.531 196.662 259.383 197.79 258.863 198.918 258.343 199.698 257.546 200.13 256.472 200.552 255.395 200.559 254.412 200.15 253.525ZM231.128 246.019V246.019C229.251 247.637 227.341 248.857 225.397 249.681 223.454 250.504 221.655 250.912 220 250.904 218.344 250.897 216.828 250.599 215.452 250.011 214.085 249.423 212.926 248.577 211.973 247.471 211.024 246.37 210.363 245.094 209.99 243.641 209.616 242.189 209.546 240.646 209.778 239.012 210.005 237.382 210.666 235.665 211.763 233.859 212.856 232.049 214.309 230.361 216.125 228.797 217.945 227.228 219.747 226.069 221.531 225.321 223.315 224.563 224.969 224.204 226.492 224.245V224.245C229.595 224.331 232.084 225.462 233.958 227.637V227.637C234.907 228.738 235.599 230.019 236.034 231.481 236.474 232.948 236.627 234.488 236.493 236.1 236.358 237.722 235.836 239.404 234.927 241.146 234.023 242.884 232.756 244.509 231.128 246.019ZM227.943 232.996C227.309 232.26 226.493 231.844 225.494 231.745 224.491 231.652 223.449 232.07 222.369 233.001 221.289 233.931 220.678 234.955 220.538 236.071 220.396 237.196 220.68 238.17 221.389 238.993 222.099 239.816 223.002 240.189 224.101 240.111 225.19 240.033 226.204 239.589 227.146 238.778 228.087 237.967 228.617 236.986 228.736 235.834 228.846 234.683 228.581 233.736 227.943 232.996ZM254.869 217.745V217.745C254.197 218.947 253.138 220.607 251.691 222.727 250.249 224.841 249.237 226.263 248.657 226.993 248.067 227.724 247.531 228.209 247.048 228.447 246.556 228.686 246.063 228.662 245.569 228.374V228.374C243.672 227.227 241.551 225.854 239.208 224.255 236.858 222.651 234.394 220.92 231.816 219.062V219.062C230.219 217.922 229.87 216.579 230.77 215.031V215.031C231.407 213.954 232.454 212.347 233.912 210.21 235.366 208.08 236.538 206.43 237.426 205.261 238.314 204.092 239.393 203.114 240.661 202.327 241.925 201.546 243.187 201.089 244.447 200.954V200.954C247.044 200.664 249.428 201.259 251.598 202.74V202.74C253.886 204.302 255.424 206.432 256.212 209.131V209.131C256.589 210.433 256.671 211.836 256.457 213.342 256.252 214.847 255.723 216.314 254.869 217.745ZM241.851 210.537V210.537L247.991 214.727C248.125 214.819 248.289 214.857 248.481 214.84 248.668 214.82 248.82 214.722 248.939 214.549V214.549C249.678 213.466 249.873 212.379 249.525 211.287 249.178 210.195 248.496 209.302 247.481 208.61 246.466 207.917 245.399 207.579 244.278 207.595 243.163 207.615 242.3 208.073 241.687 208.97V208.97C241.538 209.189 241.432 209.363 241.368 209.492V209.492C241.23 209.875 241.391 210.223 241.851 210.537ZM268.336 192.619C267.711 194.27 266.948 195.738 266.048 197.023 265.145 198.314 264.399 199.182 263.81 199.627 263.224 200.081 262.819 200.374 262.595 200.506V200.506C262.001 200.848 261.352 200.885 260.647 200.618V200.618C260.088 200.407 259.586 200.14 259.142 199.82V199.82C258.296 199.216 257.997 198.587 258.244 197.934V197.934C258.343 197.731 258.818 197.138 259.67 196.154 260.525 195.179 261.077 194.364 261.324 193.71V193.71C261.695 192.732 261.496 192.098 260.727 191.807V191.807C260.264 191.632 259.744 191.711 259.168 192.044 258.594 192.371 257.997 192.806 257.378 193.348 256.759 193.89 256.084 194.419 255.352 194.933 254.62 195.447 253.745 195.783 252.727 195.942 251.712 196.11 250.649 195.983 249.538 195.563V195.563C247.697 194.865 246.597 193.418 246.239 191.221 245.874 189.021 246.233 186.493 247.314 183.636 248.396 180.779 249.547 178.623 250.765 177.168 251.984 175.713 253.111 175.181 254.146 175.573V175.573C254.895 175.857 255.487 176.277 255.922 176.834 256.355 177.397 256.499 177.869 256.355 178.25V178.25C256.305 178.383 255.987 178.771 255.403 179.414 254.822 180.065 254.417 180.696 254.186 181.305V181.305C253.727 182.518 253.964 183.301 254.897 183.654V183.654C255.36 183.83 255.892 183.701 256.492 183.267 257.098 182.836 257.732 182.281 258.396 181.603 259.052 180.923 259.759 180.254 260.516 179.597 261.267 178.938 262.135 178.468 263.119 178.187 264.106 177.9 265.146 177.964 266.238 178.377 267.33 178.791 268.194 179.517 268.831 180.557 269.468 181.597 269.816 182.788 269.873 184.131V184.131C269.988 186.781 269.476 189.61 268.336 192.619Z" fill="#528265" data-fill-palette-color="primary"></path><path d="M23.52 110.651V110.651L6.411 104.393C4.732 103.588 4.091 102.509 4.487 101.158V101.158C4.817 100.201 7.119 93.909 11.394 82.28V82.28C11.858 81.019 13.024 80.731 14.89 81.417V81.417C15.84 81.767 16.11 82.499 15.7 83.614V83.614L13.177 90.476C13.015 90.916 13.033 91.32 13.23 91.689 13.425 92.064 13.764 92.341 14.248 92.519V92.519L16.485 93.341C17.135 93.58 17.56 93.426 17.762 92.878V92.878L19.684 87.65C19.869 87.146 20.123 86.809 20.446 86.639 20.767 86.475 21.341 86.545 22.17 86.849 23.004 87.156 23.492 87.473 23.632 87.799 23.773 88.126 23.743 88.56 23.544 89.102V89.102L21.819 93.794C21.624 94.323 21.618 94.733 21.801 95.024 21.977 95.313 22.338 95.558 22.886 95.76V95.76L28.306 97.752C29.038 98.022 29.525 98.381 29.764 98.831 30.006 99.274 30.035 99.748 29.85 100.251V100.251L26.561 109.197C26.345 109.783 25.966 110.215 25.423 110.493 24.879 110.771 24.245 110.823 23.52 110.651ZM31.857 54.285V54.285L53.307 56.443C54.164 56.526 54.795 56.717 55.2 57.014 55.61 57.316 55.795 57.701 55.754 58.168 55.713 58.636 55.534 59.085 55.216 59.517V59.517L48.812 68.219C48.16 69.104 47.58 69.554 47.072 69.568V69.568C46.911 69.559 46.647 69.517 46.281 69.441V69.441L44.028 68.997C43.34 68.844 42.637 69.174 41.921 69.987V69.987L38.166 75.088C37.885 75.471 37.71 75.789 37.641 76.042 37.568 76.291 37.61 76.571 37.769 76.882V76.882L39.18 79.552C39.37 79.97 39.446 80.33 39.41 80.631 39.364 80.935 39.19 81.291 38.888 81.701V81.701L37.095 84.137C36.58 84.837 36.051 85.029 35.507 84.713V84.713C35.42 84.683 35.338 84.64 35.262 84.583V84.583C34.852 84.281 34.556 83.853 34.375 83.298V83.298L25.689 63.868C24.879 62.025 25.144 60.193 26.484 58.372V58.372L28.078 56.207C29.136 54.769 30.396 54.129 31.857 54.285ZM32.338 68.131V68.131L33.881 71.188C33.987 71.376 34.103 71.516 34.229 71.609V71.609C34.699 71.955 35.099 71.903 35.429 71.455V71.455L37.24 68.995C37.518 68.618 37.618 68.287 37.541 68.002 37.454 67.719 37.339 67.526 37.197 67.421 37.05 67.312 36.885 67.233 36.702 67.183V67.183L33.619 66.494C32.993 66.37 32.555 66.478 32.306 66.817 32.052 67.162 32.063 67.599 32.338 68.131ZM61.29 33.431V33.431L65.082 38.351C65.335 38.687 65.649 38.714 66.023 38.433V38.433C67.13 37.6 67.77 36.638 67.943 35.548 68.112 34.452 67.88 33.483 67.248 32.643 66.615 31.802 65.771 31.302 64.718 31.144 63.664 30.986 62.554 31.345 61.387 32.223V32.223C60.959 32.546 60.926 32.948 61.29 33.431ZM74.351 36.154V36.154C74.957 36.258 77.178 36.703 81.013 37.486V37.486C81.261 37.555 81.431 37.652 81.525 37.777V37.777C81.872 38.238 81.842 38.621 81.435 38.927V38.927C80.503 39.664 79.559 40.391 78.604 41.109 77.644 41.832 76.684 42.538 75.724 43.226V43.226C75.203 43.618 74.576 43.772 73.841 43.688V43.688L68.911 41.931C68.737 41.892 68.576 41.903 68.427 41.964V41.964C68.063 42.068 68.01 42.291 68.267 42.632V42.632L70.325 45.366C70.9 46.131 70.701 46.922 69.728 47.74 68.76 48.553 67.677 49.411 66.478 50.314 65.285 51.212 63.806 52.256 62.043 53.447V53.447C61.494 53.801 60.942 53.937 60.386 53.854 59.832 53.761 59.375 53.532 59.015 53.166V53.166C57.69 51.699 55.759 49.281 53.224 45.913 50.689 42.545 48.893 40.052 47.836 38.434 46.79 36.817 46.982 35.453 48.414 34.341V34.341C49.758 33.304 51.601 31.904 53.944 30.14 56.287 28.377 58.241 26.936 59.804 25.819V25.819C62.047 24.181 64.48 23.637 67.103 24.187 69.721 24.731 71.792 26.014 73.315 28.037V28.037C74.201 29.214 74.75 30.509 74.963 31.92 75.166 33.331 74.963 34.742 74.351 36.154ZM90.185 12.091C91.314 12.771 92.659 13.691 94.222 14.849 95.784 16.008 96.858 16.766 97.443 17.124 98.022 17.484 98.432 17.62 98.675 17.532 98.917 17.444 99.084 17.228 99.176 16.884 99.27 16.547 99.581 15.246 100.108 12.981 100.642 10.714 101.125 8.96 101.555 7.72 101.986 6.48 102.427 5.767 102.88 5.581 103.339 5.393 103.935 5.165 104.669 4.898 105.409 4.629 106.277 4.336 107.274 4.017 108.279 3.702 109.03 3.721 109.527 4.075 110.024 4.429 110.461 5.025 110.838 5.863V5.863C111.768 8.025 112.896 10.93 114.222 14.58 115.549 18.229 116.498 21.138 117.069 23.307V23.307C117.214 23.825 117.19 24.346 116.998 24.871 116.806 25.396 116.417 25.765 115.83 25.979V25.979C114.554 26.464 113.135 26.991 111.572 27.559 110.002 28.129 108.743 28.551 107.795 28.823V28.823C107.456 28.924 107.109 28.903 106.753 28.758 106.403 28.61 106.145 28.339 105.98 27.944V27.944L103.9 22.817C103.698 22.32 103.486 22.075 103.265 22.083 103.038 22.094 102.902 22.298 102.86 22.697V22.697C102.459 25.074 101.873 27.783 101.1 30.823V30.823C100.921 31.581 100.505 32.079 99.855 32.316 99.204 32.552 98.557 32.441 97.913 31.981V31.981C96.799 31.201 94.739 29.429 91.733 26.664V26.664C91.555 26.491 91.387 26.407 91.23 26.414 91.083 26.424 90.981 26.522 90.926 26.709 90.877 26.893 90.914 27.154 91.037 27.492V27.492L92.763 32.748C92.89 33.157 92.829 33.544 92.579 33.909 92.335 34.272 91.993 34.544 91.554 34.726V34.726L88.434 35.86C87.859 36.047 87.329 36.012 86.846 35.754 86.358 35.505 85.997 35.149 85.764 34.685V34.685C84.912 32.878 83.77 30.003 82.336 26.06 80.903 22.117 79.905 19.2 79.341 17.311V17.311C79.085 16.407 79.034 15.652 79.19 15.047 79.352 14.439 79.863 13.979 80.725 13.666V13.666C85.14 12.061 87.538 11.226 87.918 11.16 88.299 11.093 89.055 11.404 90.185 12.091ZM150.325 24.848C148.409 24.698 146.636 24.344 145.005 23.787 143.379 23.237 142.242 22.722 141.592 22.242 140.949 21.762 140.522 21.425 140.313 21.232V21.232C139.767 20.719 139.527 20.05 139.592 19.224V19.224C139.643 18.575 139.769 17.968 139.97 17.405V17.405C140.347 16.332 140.915 15.825 141.673 15.884V15.884C141.914 15.93 142.679 16.249 143.967 16.841 145.255 17.439 146.281 17.768 147.046 17.829V17.829C148.183 17.918 148.787 17.516 148.857 16.623V16.623C148.899 16.088 148.657 15.568 148.132 15.064 147.612 14.567 146.973 14.074 146.215 13.586 145.457 13.097 144.696 12.55 143.933 11.946 143.178 11.335 142.557 10.523 142.072 9.511 141.593 8.493 141.405 7.337 141.507 6.045V6.045C141.675 3.906 142.856 2.31 145.049 1.257 147.236 0.21 149.991-0.183 153.314 0.078 156.637 0.339 159.25 0.885 161.152 1.716 163.048 2.553 163.948 3.573 163.853 4.778V4.778C163.785 5.644 163.526 6.39 163.075 7.015 162.617 7.646 162.164 7.945 161.717 7.909V7.909C161.562 7.897 161.058 7.681 160.206 7.259 159.353 6.845 158.571 6.61 157.861 6.554V6.554C156.453 6.444 155.706 6.936 155.62 8.033V8.033C155.578 8.567 155.874 9.084 156.509 9.584 157.144 10.083 157.919 10.576 158.834 11.064 159.749 11.551 160.664 12.086 161.578 12.669 162.499 13.259 163.259 14.027 163.859 14.973 164.459 15.919 164.709 17.028 164.609 18.3 164.509 19.566 164.012 20.691 163.117 21.676 162.216 22.661 161.076 23.392 159.697 23.869V23.869C156.948 24.797 153.824 25.123 150.325 24.848ZM187.645 30.838V30.838C187.462 31.292 187.115 31.651 186.603 31.915 186.091 32.179 185.509 32.225 184.857 32.055V32.055C183.62 31.729 182.152 31.279 180.455 30.705 178.764 30.132 177.222 29.564 175.829 28.999V28.999C175.207 28.739 174.773 28.348 174.527 27.828 174.28 27.307 174.222 26.811 174.353 26.339V26.339C175.379 23.096 176.277 20.336 177.048 18.06 177.818 15.783 178.396 14.119 178.781 13.067V13.067C179.053 12.263 178.828 11.739 178.108 11.495V11.495L175.243 10.526C174.8 10.376 174.476 10.148 174.271 9.842 174.066 9.536 174.038 9.111 174.187 8.566 174.333 8.028 174.503 7.473 174.697 6.9 174.89 6.328 175.073 5.842 175.244 5.441 175.416 5.04 175.694 4.78 176.079 4.659 176.463 4.538 176.836 4.539 177.196 4.661V4.661C179.961 5.554 183.698 6.797 188.405 8.39 193.105 9.981 196.465 11.139 198.484 11.865V11.865C198.835 12.013 199.13 12.245 199.366 12.562 199.603 12.879 199.668 13.248 199.561 13.671 199.454 14.093 199.307 14.581 199.12 15.134 198.932 15.687 198.743 16.214 198.552 16.715V16.715C198.166 17.645 197.484 17.945 196.506 17.614V17.614L193.651 16.648C192.931 16.404 192.446 16.652 192.195 17.392V17.392C191.35 20.08 190.562 22.504 189.831 24.665 189.097 26.832 188.369 28.889 187.645 30.838ZM226.919 31.544V31.544L225.286 53.04C225.223 53.9 225.048 54.535 224.76 54.947 224.469 55.364 224.089 55.558 223.62 55.529 223.152 55.5 222.698 55.332 222.259 55.024V55.024L213.404 48.834C212.502 48.204 212.038 47.635 212.012 47.128V47.128C212.017 46.966 212.053 46.701 212.12 46.334V46.334L212.509 44.071C212.645 43.379 212.297 42.685 211.467 41.989V41.989L206.276 38.36C205.887 38.087 205.564 37.92 205.31 37.858 205.059 37.79 204.78 37.84 204.473 38.006V38.006L201.839 39.482C201.425 39.682 201.068 39.767 200.765 39.738 200.461 39.699 200.1 39.534 199.683 39.242V39.242L197.204 37.509C196.492 37.012 196.287 36.487 196.589 35.936V35.936C196.617 35.849 196.659 35.766 196.713 35.688V35.688C197.005 35.27 197.426 34.964 197.976 34.769V34.769L217.188 25.612C219.011 24.757 220.849 24.978 222.702 26.273V26.273L224.905 27.813C226.369 28.836 227.04 30.08 226.919 31.544ZM213.09 32.363V32.363L210.071 33.98C209.886 34.091 209.748 34.21 209.659 34.338V34.338C209.324 34.817 209.385 35.215 209.841 35.534V35.534L212.345 37.285C212.729 37.553 213.062 37.645 213.345 37.561 213.626 37.467 213.817 37.348 213.918 37.204 214.023 37.053 214.098 36.887 214.143 36.703V36.703L214.757 33.603C214.865 32.975 214.747 32.54 214.402 32.299 214.051 32.054 213.614 32.075 213.09 32.363ZM259.484 63.226V63.226L261.696 66.046C262.166 66.645 262.396 67.141 262.387 67.537 262.379 67.923 262.084 68.361 261.503 68.852V68.852C258.907 71.053 256.07 73.36 252.994 75.774 249.912 78.192 247.61 79.899 246.088 80.895V80.895C245.657 81.181 245.169 81.318 244.624 81.306 244.074 81.297 243.625 81.071 243.277 80.628V80.628L239.82 76.222C239.338 75.608 239.024 74.758 238.88 73.672V73.672C238.092 67.697 237.548 63.973 237.247 62.501V62.501C237.169 62.226 237.003 62.08 236.749 62.064 236.494 62.048 236.164 62.199 235.758 62.517V62.517L232.834 64.812C232.498 65.076 232.137 65.16 231.752 65.065V65.065C231.164 64.932 230.268 64.098 229.066 62.565V62.565C228.734 62.143 228.423 61.719 228.131 61.292 227.839 60.865 227.761 60.396 227.895 59.886 228.03 59.365 228.284 58.946 228.656 58.628V58.628C230.729 56.916 233.362 54.806 236.556 52.3 239.75 49.794 241.837 48.17 242.816 47.427 243.795 46.685 244.566 46.265 245.129 46.169 245.693 46.063 246.21 46.309 246.679 46.907V46.907L248.961 49.815C249.43 50.414 249.746 51.162 249.908 52.062V52.062C251.351 59.74 252.204 64.214 252.466 65.484V65.484C252.557 65.896 252.724 66.148 252.97 66.241 253.215 66.333 253.479 66.268 253.762 66.046V66.046L257.455 63.148C257.808 62.872 258.172 62.737 258.548 62.744 258.92 62.745 259.232 62.906 259.484 63.226ZM252.752 101.651V101.651C252.063 100.319 251.191 98.358 250.136 95.768 249.082 93.177 248.397 91.397 248.082 90.425 247.773 89.451 247.657 88.671 247.733 88.083 247.808 87.495 248.128 87.064 248.691 86.791V86.791C250.878 85.754 253.405 84.651 256.272 83.484 259.139 82.316 262.196 81.119 265.442 79.892V79.892C267.446 79.127 268.879 79.621 269.74 81.375V81.375C270.336 82.605 271.166 84.525 272.228 87.134 273.291 89.743 274.088 91.801 274.621 93.307 275.15 94.821 275.389 96.391 275.34 98.016 275.291 99.642 274.948 101.068 274.312 102.295V102.295C273.001 104.837 271.023 106.647 268.376 107.724V107.724C265.578 108.864 262.714 108.978 259.785 108.067V108.067C258.375 107.63 257.046 106.859 255.798 105.755 254.552 104.657 253.537 103.289 252.752 101.651ZM267.16 94.157V94.157L259.634 97.221C259.471 97.288 259.343 97.414 259.249 97.598 259.156 97.783 259.151 97.979 259.236 98.186V98.186C259.776 99.513 260.647 100.346 261.848 100.685 263.051 101.031 264.275 100.95 265.52 100.443 266.759 99.939 267.707 99.171 268.365 98.141 269.023 97.111 269.129 96.049 268.684 94.955V94.955C268.574 94.684 268.477 94.482 268.393 94.348V94.348C268.131 93.992 267.72 93.929 267.16 94.157Z" fill="#528265" data-fill-palette-color="primary"></path><path d="M10.079 143.643C10.079 142.107 11.324 140.862 12.859 140.862 14.395 140.862 15.639 142.107 15.639 143.643 15.639 145.178 14.395 146.423 12.859 146.423 11.324 146.423 10.079 145.178 10.079 143.643ZM266.441 143.643C266.441 142.107 267.685 140.862 269.221 140.862 270.757 140.862 272.001 142.107 272.001 143.643 272.001 145.178 270.757 146.423 269.221 146.423 267.685 146.423 266.441 145.178 266.441 143.643Z" fill="#528265" data-fill-palette-color="primary"></path></g></svg></g></svg></g></svg></g></svg></g><defs></defs></svg><rect width="279.72" height="279.72" fill="none" stroke="none" visibility="hidden"></rect></g></svg></g></svg>